<?xml version="1.0" standalone="no"?>
<!DOCTYPE svg PUBLIC "-//W3C//DTD SVG 20010904//EN"
 "http://www.w3.org/TR/2001/REC-SVG-20010904/DTD/svg10.dtd">
<svg version="1.0" xmlns="http://www.w3.org/2000/svg"
 width="290.000000pt" height="290.000000pt" viewBox="0 0 290.000000 290.000000"
 preserveAspectRatio="xMidYMid meet">
<metadata>
Created by potrace 1.14, written by Peter Selinger 2001-2017
</metadata>
<g transform="translate(0.000000,290.000000) scale(0.100000,-0.100000)"
fill="#000000" stroke="none">
<path d="M933 2619 c-4 -4 -21 -10 -37 -13 -16 -3 -32 -9 -35 -13 -3 -4 -15
-9 -26 -11 -46 -6 -82 -15 -109 -26 -25 -10 -27 -14 -15 -26 8 -8 25 -37 39
-65 14 -27 27 -52 30 -55 5 -4 31 -57 35 -70 1 -3 5 -17 9 -32 5 -16 12 -28
17 -28 5 0 9 -9 9 -20 0 -11 4 -20 10 -20 5 0 7 -7 4 -15 -4 -8 -1 -15 6 -15
6 0 8 -4 5 -10 -3 -5 -1 -10 5 -10 6 0 8 -4 5 -10 -3 -5 -1 -10 5 -10 6 0 9
-4 6 -9 -3 -5 1 -14 9 -21 8 -7 12 -16 9 -21 -3 -5 0 -9 5 -9 6 0 11 -5 11
-11 0 -20 41 -99 51 -99 6 0 7 -5 4 -10 -4 -6 -2 -17 4 -24 16 -19 0 -23 -81
-22 -38 1 -68 -1 -68 -4 0 -3 -18 -5 -40 -4 -22 0 -40 -3 -40 -8 0 -5 -6 -8
-12 -7 -15 2 -30 -3 -118 -44 -36 -16 -68 -35 -72 -41 -5 -6 -8 -7 -8 -1 0 6
-5 2 -11 -7 -5 -10 -14 -18 -19 -18 -19 0 -130 -125 -130 -147 0 -7 -5 -13
-11 -13 -5 0 -15 -13 -20 -30 -6 -16 -16 -30 -22 -30 -6 0 -7 -3 -4 -6 3 -4 1
-16 -5 -28 -7 -11 -13 -23 -14 -26 0 -3 -4 -12 -7 -20 -31 -75 -42 -248 -22
-350 24 -124 95 -253 184 -333 63 -58 87 -77 98 -77 7 0 17 -8 22 -18 6 -9 11
-13 11 -9 0 4 10 2 23 -5 12 -7 25 -11 30 -10 4 1 7 -2 7 -8 0 -5 9 -10 19
-10 11 0 22 -4 25 -9 3 -4 20 -12 38 -16 18 -4 42 -10 53 -12 11 -3 58 -6 105
-6 127 -1 193 13 285 62 33 17 65 31 72 31 7 0 13 5 13 10 0 6 8 14 18 17 16
6 60 48 126 122 l29 32 24 -25 c12 -14 23 -29 23 -33 0 -5 16 -22 35 -38 20
-17 47 -40 61 -52 14 -13 28 -23 33 -23 4 0 16 -8 27 -18 19 -17 105 -61 134
-68 8 -2 31 -7 50 -12 35 -9 233 -8 280 1 14 2 45 12 70 21 25 9 50 18 55 19
6 1 12 4 15 8 3 3 23 16 45 29 98 60 202 170 252 267 56 108 67 156 67 298 1
89 -4 143 -14 170 -8 22 -15 43 -16 48 -1 4 -3 9 -4 12 -1 3 -3 8 -4 13 -1 4
-7 16 -13 27 -6 11 -11 22 -11 25 0 13 -26 60 -33 60 -4 0 -11 10 -15 22 -7
25 -121 140 -169 174 -43 29 -122 64 -145 64 -11 0 -20 4 -20 8 0 5 -6 9 -12
10 -7 1 -30 4 -51 6 -21 2 -41 6 -44 9 -3 3 -16 2 -29 -3 -13 -5 -25 -6 -28
-1 -3 4 -33 6 -68 4 -89 -5 -106 -7 -170 -26 -32 -10 -59 -16 -61 -15 -1 2 -9
-3 -17 -10 -8 -7 -43 -30 -77 -52 -35 -22 -63 -44 -63 -50 0 -6 -4 -8 -10 -5
-5 3 -16 -7 -22 -22 -7 -15 -18 -34 -25 -41 -9 -9 -9 -20 -3 -37 5 -14 7 -25
4 -25 -3 0 2 -7 11 -16 9 -9 14 -23 11 -31 -3 -8 -1 -11 4 -8 6 3 10 -3 10
-14 0 -12 5 -21 10 -21 6 0 10 -8 10 -18 0 -10 7 -28 16 -40 8 -12 13 -22 10
-22 -3 0 0 -13 5 -30 6 -16 15 -30 21 -30 5 0 7 -4 4 -9 -3 -5 3 -11 14 -14
16 -4 26 4 45 37 14 24 25 46 25 50 0 21 76 93 132 125 51 29 67 32 140 33
119 2 175 -20 261 -101 34 -32 95 -131 81 -131 -4 0 -1 -7 6 -15 15 -19 20
-128 6 -137 -8 -5 -7 -8 1 -8 8 0 9 -10 1 -38 -13 -52 -50 -132 -60 -132 -4 0
-8 -5 -8 -11 0 -18 -81 -90 -125 -110 -94 -43 -219 -43 -306 1 -74 38 -168
153 -184 225 -1 5 -7 21 -12 35 -6 14 -11 28 -12 33 0 4 -8 21 -16 37 -8 16
-14 31 -13 33 2 2 -4 12 -12 22 -17 20 -40 82 -40 108 0 9 -5 17 -11 17 -5 0
-8 4 -4 9 3 5 1 12 -5 16 -6 4 -8 11 -5 16 4 5 2 9 -2 9 -9 0 -40 94 -32 96 2
0 -4 8 -14 18 -9 10 -15 22 -12 27 4 5 1 9 -4 9 -6 0 -11 9 -11 20 0 11 -4 20
-10 20 -5 0 -10 9 -10 21 0 11 -7 27 -15 36 -8 8 -13 19 -10 24 4 5 1 9 -4 9
-6 0 -11 9 -11 20 0 11 -4 20 -10 20 -5 0 -10 4 -10 9 0 5 -26 62 -57 127 -31
66 -57 121 -58 124 0 3 -11 27 -23 54 -12 27 -22 52 -22 56 0 5 -3 10 -7 12
-11 4 -69 121 -66 130 2 5 -2 8 -7 8 -5 0 -10 3 -9 8 2 15 -14 52 -22 52 -5 0
-9 7 -9 15 0 8 -9 30 -20 50 -11 19 -20 38 -21 43 -12 60 -69 108 -96 81z m12
-959 c0 -1 18 -4 39 -6 41 -5 146 -52 146 -65 0 -4 9 -11 21 -14 11 -4 18 -9
15 -12 -3 -3 0 -11 7 -18 63 -66 95 -136 98 -215 0 -25 0 -47 -1 -50 -1 -5
-10 -64 -12 -87 -1 -7 -4 -13 -8 -13 -3 0 -6 -10 -7 -22 -1 -11 -6 -24 -11
-27 -5 -3 -17 -21 -26 -38 -9 -18 -21 -33 -26 -33 -6 0 -10 -7 -10 -15 0 -8
-4 -15 -9 -15 -5 0 -24 -14 -42 -31 -52 -49 -104 -62 -232 -61 -53 0 -81 6
-123 27 -30 15 -54 31 -54 37 0 6 -3 9 -6 5 -16 -16 -119 118 -132 173 -10 39
-8 213 2 223 6 7 12 21 14 31 5 27 50 96 79 120 14 12 32 29 41 39 9 9 22 17
28 17 6 0 17 7 24 15 6 8 15 14 18 13 4 -1 14 2 22 5 32 13 84 23 114 21 17
-1 31 -3 31 -4z"/>
</g>
</svg>
